PathFileType	4	(X/Y/Z)	C:/Users/opensim2020/Desktop/walking_exp_matlab/subject06_walking15_straight_03.trc	
DataRate	CameraRate	NumFrames	NumMarkers	Units	OrigDataRate	OrigDataStartFrame	OrigNumFrames	
100.00	100.00	4	47	mm	100.00	2209	193	
Frame#	Time	LFHD			RFHD			LBHD			RBHD			C7			T10			CLAV			STRN			RBAK			LSHO			LUPA			LELB			LFRM			LWRA			LWRB			LFIN			RSHO			RUPA			RELB			RFRM			RWRA			RWRB			RFIN			LASI			RASI			LPSI			RPSI			LTHI			LKNE			LTIB			LANK			LHEE			LTOE			RTHI			RKNE			RTIB			RANK			RHEE			RTOE			*39			*40			*41			*42			*43			*44			*45			*46			
		X1	Y1	Z1	X2	Y2	Z2	X3	Y3	Z3	X4	Y4	Z4	X5	Y5	Z5	X6	Y6	Z6	X7	Y7	Z7	X8	Y8	Z8	X9	Y9	Z9	X10	Y10	Z10	X11	Y11	Z11	X12	Y12	Z12	X13	Y13	Z13	X14	Y14	Z14	X15	Y15	Z15	X16	Y16	Z16	X17	Y17	Z17	X18	Y18	Z18	X19	Y19	Z19	X20	Y20	Z20	X21	Y21	Z21	X22	Y22	Z22	X23	Y23	Z23	X24	Y24	Z24	X25	Y25	Z25	X26	Y26	Z26	X27	Y27	Z27	X28	Y28	Z28	X29	Y29	Z29	X30	Y30	Z30	X31	Y31	Z31	X32	Y32	Z32	X33	Y33	Z33	X34	Y34	Z34	X35	Y35	Z35	X36	Y36	Z36	X37	Y37	Z37	X38	Y38	Z38	X39	Y39	Z39	X40	Y40	Z40	X41	Y41	Z41	X42	Y42	Z42	X43	Y43	Z43	X44	Y44	Z44	X45	Y45	Z45	X46	Y46	Z46	X47	Y47	Z47	

73	0.720	1353.12927	-387.75067	1650.20862	1484.91174	-388.80402	1642.44824	1353.00903	-520.79565	1594.87842	1482.65479	-520.48785	1592.52881	1411.16296	-523.09100	1443.93164	1419.75806	-577.60925	1118.02856	1416.95056	-417.60220	1360.06262	1412.32556	-389.22211	1183.12256	1482.86108	-609.69885	1279.19238	1254.16516	-461.14374	1391.79858	1178.83154	-428.57596	1194.69702	1161.61536	-401.75494	1086.17529	1145.79846	-294.21548	983.02905	1195.22644	-176.31277	943.64014	1159.91028	-213.97144	895.50958	1159.61938	-127.58792	871.28174	1575.13770	-469.57010	1396.56653	1661.31250	-545.33246	1209.85901	1676.63940	-559.45300	1088.55640	1698.67334	-572.57489	969.68616	1677.81567	-545.36206	818.81244	1713.72986	-599.79846	835.02393	1719.49011	-584.71045	751.84760	1315.85828	-411.22992	942.85223	1535.83093	-400.67447	965.13574	1348.43103	-565.42902	980.28601	1515.58691	-553.65063	990.87653	1271.55737	-531.02991	635.35040	1294.63135	-568.31952	475.02145	1298.08313	-740.39764	279.85538	1338.11401	-838.37091	137.05235	1383.16504	-880.04749	145.25635	1343.38330	-731.56732	39.50246	1599.67603	-391.81985	641.11737	1568.09863	-352.75916	524.53168	1568.15479	-352.21948	257.12726	1519.98181	-340.12085	72.14012	1473.14160	-375.62146	48.22615	1521.70886	-185.74866	41.90102	1410.53540	-488.84903	1689.56909																					 
74	0.730	1354.84937	-377.86710	1652.61133	1486.54749	-378.56354	1644.42371	1354.46912	-510.55685	1597.54260	1484.16138	-510.27081	1594.66772	1412.51587	-513.10944	1446.03906	1421.42456	-566.91876	1120.45166	1417.93958	-407.16431	1362.52209	1413.25977	-378.34497	1185.72205	1484.31628	-598.64313	1281.56421	1255.58838	-451.33804	1394.23364	1180.83789	-418.93134	1197.12854	1164.21008	-394.67300	1087.84814	1147.99292	-289.47385	981.99146	1196.73389	-172.45911	939.48578	1161.60229	-211.35648	892.55505	1161.20105	-125.45757	865.88446	1576.24280	-458.57788	1399.13501	1662.75146	-533.13666	1212.07666	1678.19592	-546.37555	1090.70508	1700.22095	-558.50427	971.83875	1675.94812	-533.71002	819.55151	1715.44312	-584.36133	836.99304	1721.32605	-568.67310	753.98846	1317.29541	-400.93314	945.35040	1536.80933	-390.03976	966.93848	1350.72888	-554.97473	982.58051	1517.72937	-542.13531	993.28815	1273.15930	-517.19684	636.09778	1295.28601	-550.82495	475.08554	1299.54163	-727.56500	284.76279	1339.10657	-829.88379	145.19884	1384.85315	-870.28680	155.26059	1343.94763	-729.79041	40.31190	1600.23499	-384.61346	641.20532	1568.41028	-346.70914	524.56097	1567.72974	-349.94559	257.26062	1519.67529	-339.37021	72.32089	1472.94373	-375.48172	48.37746	1520.95056	-185.31216	41.37901	1412.42334	-478.50739	1691.93982																					 
75	0.740	1356.44885	-367.33105	1655.03870	1488.06506	-368.33243	1646.22803	1355.91479	-500.46622	1600.10217	1485.58276	-500.12064	1596.73987	1413.71033	-502.64899	1447.90894	1423.26709	-556.48645	1122.64880	1418.87183	-396.91748	1364.80957	1414.20093	-367.59198	1188.16809	1486.18298	-587.61102	1283.82556	1256.93481	-441.77802	1396.50903	1182.82678	-409.94196	1199.31677	1166.70581	-387.91132	1089.25195	1150.13660	-285.09818	980.73480	1198.06909	-168.61397	935.43481	1163.14490	-209.20757	889.38135	1162.85999	-124.10560	860.11487	1577.26843	-447.49789	1401.61890	1664.33728	-520.83917	1214.30151	1679.84253	-533.32611	1092.82117	1701.82007	-544.24902	973.85925	1677.18469	-518.20245	821.76416	1716.90247	-568.72351	838.79382	1722.70715	-552.15582	755.85852	1318.52026	-390.84586	947.69360	1537.74451	-379.04599	968.51849	1353.05847	-544.66443	984.69940	1519.87683	-530.60590	995.48193	1274.57544	-502.98419	636.76971	1295.90417	-532.72241	475.09747	1301.18591	-713.43646	289.55899	1340.19141	-820.22015	153.36128	1386.73340	-859.02234	165.33255	1344.36975	-727.12469	41.53970	1600.85376	-377.61398	641.25745	1568.75476	-341.11288	524.43878	1566.93213	-347.79077	257.34363	1519.14551	-338.68539	72.50444	1472.71423	-375.28726	48.57022	1520.05017	-184.67892	41.17911	1414.17932	-468.24683	1694.23706																					 
76	0.750	1357.89600	-357.27823	1657.05664	1489.50586	-358.19043	1647.85876	1357.31458	-490.56705	1602.42419	1486.91931	-490.03958	1598.64539	1415.14392	-492.85132	1449.59302	1425.19556	-545.91199	1124.69055	1419.84082	-386.63220	1366.97351	1415.30835	-356.86853	1190.44287	1488.41455	-576.73669	1285.85132	1258.17139	-432.43759	1398.54639	1184.56543	-401.66736	1201.05774	1169.16406	-381.62613	1090.35266	1152.00720	-281.30942	979.36407	1199.87683	-165.44154	930.98810	1164.66785	-207.04117	886.05774	1164.55896	-123.20955	854.10388	1578.33740	-436.41510	1403.97791	1666.05212	-508.48798	1216.44202	1681.66846	-520.25055	1094.75024	1703.45825	-529.72864	975.73865	1678.49365	-502.11618	823.99567	1718.40247	-552.75360	840.43488	1724.19287	-535.13428	757.78278	1320.26147	-380.92044	950.16595	1538.66406	-368.06567	969.72156	1355.27917	-534.60284	986.59930	1521.92212	-519.29584	997.46014	1275.71191	-488.34241	637.26654	1296.51880	-514.09393	474.92203	1302.87683	-698.37079	294.18961	1341.08081	-808.73126	161.54274	1388.37415	-846.49268	175.28288	1344.38525	-723.38373	43.56834	1601.35486	-370.77121	641.45923	1569.27332	-335.74908	524.26874	1566.68848	-346.32660	257.29172	1518.67456	-338.26752	72.65063	1472.40125	-375.12512	48.72969	1519.71143	-184.52068	41.14007	1415.84900	-458.00089	1696.27856																					 
